<svg width="209" height="71" viewBox="0 0 209 71" fill="none" xmlns="http://www.w3.org/2000/svg">
<path d="M0.703148 70.297V1.30328H207.682V70.297H0.703148Z" fill="#000055" stroke="#FF267E" stroke-width="1.4063"/>
<path d="M46.4699 40.8525C46.2763 42.2742 45.889 43.5422 45.2306 44.7334C44.5722 45.9245 43.6814 46.9236 42.6357 47.7689C41.59 48.6527 40.3507 49.3059 38.9564 49.767C37.5234 50.2665 35.9742 50.4971 34.3088 50.4971C32.2174 50.4971 30.3584 50.1513 28.7317 49.4596C27.1051 48.8064 25.7495 47.8458 24.6264 46.5393C23.4645 45.2713 22.6512 43.7728 22.0702 41.9668C21.4893 40.1608 21.1794 38.1628 21.1794 35.9341C21.1794 33.7439 21.4893 31.7458 22.109 29.9783C22.7286 28.2108 23.6194 26.7122 24.7813 25.4826C25.9045 24.253 27.2987 23.2924 28.9641 22.6392C30.5908 21.986 32.4111 21.6401 34.4637 21.6401C36.1291 21.6401 37.6396 21.8707 38.9951 22.2934C40.3507 22.7545 41.5513 23.4077 42.597 24.2146C43.6427 25.0599 44.4947 26.059 45.1531 27.2117C45.8115 28.4029 46.2376 29.7093 46.4699 31.1695H41.2027C40.9316 30.2088 40.583 29.3635 40.157 28.7103C39.6922 28.0571 39.1888 27.5575 38.6078 27.1349C37.9881 26.7122 37.3685 26.4432 36.6713 26.2511C35.9355 26.0974 35.1996 26.0206 34.425 26.0206C33.3793 26.0206 32.3723 26.2127 31.4815 26.6353C30.552 27.0964 29.7387 27.7112 29.0803 28.5566C28.4219 29.4019 27.8797 30.4394 27.4924 31.669C27.1051 32.8986 26.9114 34.3203 26.9114 35.9341C26.9114 37.5864 27.1051 39.085 27.4924 40.3145C27.8797 41.5826 28.4219 42.6585 29.0803 43.5038C29.7387 44.3876 30.5133 45.0408 31.4041 45.4635C32.2949 45.8861 33.2244 46.1167 34.2314 46.1167C35.0447 46.1167 35.858 46.0398 36.5939 45.8093C37.3297 45.6172 38.0269 45.3098 38.6465 44.8871C39.2275 44.5028 39.7697 43.9265 40.1957 43.2732C40.6218 42.62 40.9703 41.8131 41.2027 40.8525H46.4699Z" fill="#FF267E"/>
<path d="M61.8054 22.1326H67.3825L77.8783 49.9905H71.8751L69.8999 44.342H58.9781L57.0029 49.9905H51.3484L61.8054 22.1326ZM60.5661 39.8464H68.312L64.439 28.8569L60.5661 39.8464Z" fill="#FF267E"/>
<path d="M91.7428 37.7785C90.6196 37.548 89.5352 37.2406 88.5282 36.8179C87.4825 36.3952 86.5917 35.8573 85.8559 35.2041C85.0813 34.5508 84.4616 33.7823 84.0356 32.8601C83.5708 31.9764 83.3384 30.9005 83.3384 29.7093C83.3384 28.2876 83.687 27.0964 84.3841 26.059C85.0425 25.0599 85.9333 24.2146 87.0178 23.5614C88.0635 22.9082 89.2641 22.4471 90.6196 22.1012C91.9364 21.7938 93.2532 21.6401 94.5313 21.6401C95.9643 21.6401 97.3586 21.8323 98.6754 22.2549C99.9535 22.6776 101.115 23.254 102.122 23.984C103.129 24.7525 103.943 25.6747 104.562 26.7506C105.143 27.8265 105.492 29.0177 105.569 30.3625H100.225C100.108 29.5556 99.876 28.864 99.4887 28.2876C99.1014 27.7497 98.6367 27.2886 98.0945 26.9427C97.5522 26.6353 96.9326 26.3664 96.2742 26.2127C95.6158 26.0974 94.9573 26.0206 94.2989 26.0206C93.6405 26.0206 93.0209 26.0974 92.3625 26.2127C91.704 26.3279 91.1231 26.5201 90.6196 26.789C90.1161 27.0964 89.6901 27.4423 89.3803 27.8649C89.0317 28.326 88.8768 28.864 88.8768 29.4788C88.8768 30.4394 89.2641 31.2079 89.9999 31.7843C90.7358 32.3606 91.6653 32.7449 92.7885 32.937L96.4678 33.5902C97.591 33.7823 98.7529 34.0897 99.9148 34.4356C101.038 34.7814 102.084 35.2809 103.013 35.8957C103.904 36.5489 104.64 37.3558 105.221 38.3165C105.802 39.3155 106.073 40.5451 106.073 41.9668C106.073 43.3885 105.763 44.6565 105.105 45.694C104.446 46.7699 103.555 47.6537 102.51 48.3837C101.425 49.1138 100.186 49.6133 98.869 49.9591C97.5135 50.3434 96.1192 50.4971 94.6862 50.4971C92.9434 50.4971 91.3942 50.2665 89.9999 49.8054C88.5669 49.3828 87.3663 48.7296 86.3206 47.8842C85.2749 47.0773 84.4616 46.0782 83.8419 44.8487C83.2222 43.6575 82.8349 42.3126 82.7188 40.8141H88.0635C88.2184 41.8515 88.4895 42.6969 88.9155 43.3501C89.3415 44.0417 89.845 44.5797 90.4647 45.0024C91.0456 45.425 91.7428 45.694 92.5174 45.8477C93.2532 46.0398 94.0666 46.1167 94.8799 46.1167C95.4996 46.1167 96.158 46.0398 96.8164 45.9245C97.4748 45.8093 98.0557 45.5787 98.6367 45.2713C99.1789 45.0024 99.6436 44.6181 99.9922 44.0802C100.341 43.5806 100.496 42.9658 100.496 42.2358C100.496 41.6594 100.38 41.1215 100.108 40.6988C99.8373 40.2761 99.4887 39.9303 99.024 39.6229C98.5592 39.3539 98.017 39.085 97.3973 38.8928C96.7389 38.7007 96.0418 38.547 95.3059 38.4317L91.7428 37.7785Z" fill="#FF267E"/>
<path d="M118.897 22.1326H113.359V49.9905H118.897V22.1326Z" fill="#FF267E"/>
<path d="M144.259 49.9905L133.028 28.7416V49.9905H127.799V22.1326H135.003L146.234 43.3814V22.1326H151.463V49.9905H144.259Z" fill="#FF267E"/>
<path d="M164.981 36.0494C164.981 37.7017 165.214 39.1234 165.64 40.3914C166.066 41.6594 166.608 42.6969 167.344 43.5422C168.08 44.3876 168.932 45.0408 169.9 45.4635C170.868 45.8861 171.914 46.1167 172.998 46.1167C174.083 46.1167 175.128 45.8861 176.097 45.4635C177.065 45.0408 177.917 44.3876 178.653 43.5422C179.389 42.6969 179.97 41.6594 180.396 40.3914C180.783 39.1234 181.015 37.7017 181.015 36.0494C181.015 34.3971 180.783 32.9754 180.396 31.7074C179.97 30.4778 179.389 29.4404 178.653 28.595C177.917 27.7497 177.065 27.0964 176.097 26.6738C175.128 26.2511 174.083 26.0206 172.998 26.0206C171.914 26.0206 170.868 26.2511 169.9 26.6738C168.932 27.0964 168.08 27.7497 167.344 28.595C166.608 29.4404 166.066 30.4778 165.64 31.7074C165.214 32.9754 164.981 34.3971 164.981 36.0494ZM186.747 36.0494C186.747 38.2012 186.438 40.1608 185.779 41.9284C185.121 43.7343 184.23 45.2329 183.029 46.5009C181.79 47.8074 180.357 48.768 178.692 49.4596C176.987 50.1513 175.09 50.4971 172.998 50.4971C170.907 50.4971 169.009 50.1513 167.344 49.4596C165.64 48.768 164.207 47.8074 163.006 46.5009C161.767 45.2329 160.876 43.7343 160.218 41.9284C159.559 40.1608 159.249 38.2012 159.249 36.0494C159.249 33.8976 159.559 31.938 160.218 30.132C160.876 28.3645 161.767 26.8659 163.006 25.5979C164.207 24.3299 165.64 23.3692 167.344 22.6776C169.009 21.986 170.907 21.6401 172.998 21.6401C175.09 21.6401 176.987 21.986 178.692 22.6776C180.357 23.3692 181.79 24.3299 183.029 25.5979C184.23 26.8659 185.121 28.3645 185.779 30.132C186.438 31.938 186.747 33.8976 186.747 36.0494Z" fill="#FF267E"/>
</svg>
